<svg xmlns="http://www.w3.org/2000/svg" xmlns:xlink="http://www.w3.org/1999/xlink" width="69.39" height="69.344" viewBox="0 0 69.39 69.344">
  <defs>
    <linearGradient id="linear-gradient" x1="0.5" x2="0.5" y2="1" gradientUnits="objectBoundingBox">
      <stop offset="0" stop-color="#253a56"/>
      <stop offset="1" stop-color="#0665e3"/>
    </linearGradient>
  </defs>
  <g id="factory-machine" transform="translate(-15.379 95.522)">
    <path id="Path_2" data-name="Path 2" d="M9.648-511.715c-.407.217-.922.895-2.779,3.674l-2.264,3.4-.041,1.925-.041,1.939-.515.081a2.135,2.135,0,0,0-.881.366c-.773.61-.759.515-.759,7.334,0,6.019.014,6.29.271,6.724a2.105,2.105,0,0,0,1.532.976h.366v9.192l-1.545.054c-1.681.041-1.966.149-2.576.976-.244.325-.285.61-.325,2.115-.041,1.6-.027,1.8.244,2.291a2.3,2.3,0,0,0,1.79,1.1h.447l.732,2.21c1.085,3.281,1.532,3.959,2.888,4.365l.583.163.041,6.873.027,6.86h-.38a2.43,2.43,0,0,0-1.573.99c-.258.353-.285.569-.285,2.264,0,2.047.068,2.264.935,2.9.366.285.515.285,6.765.285h6.4l.447-.312c.773-.556.908-.976.908-2.874a4.828,4.828,0,0,0-.23-2.128,2.076,2.076,0,0,0-1.491-1.071l-.515-.095v-13.652h2.44v5.382c.014,4.148.054,5.518.19,5.911a3.183,3.183,0,0,0,1.627,1.8l.691.325h24l.691-.325a3.183,3.183,0,0,0,1.627-1.8c.136-.393.176-1.762.19-5.911v-5.382h2.44v13.652l-.515.095a2.076,2.076,0,0,0-1.491,1.071,4.828,4.828,0,0,0-.23,2.128c0,1.9.136,2.318.908,2.874l.447.312h6.4c6.25,0,6.4,0,6.765-.285.868-.637.935-.854.935-2.9,0-1.695-.027-1.911-.285-2.264a2.43,2.43,0,0,0-1.573-.99H62.7l.027-6.86.041-6.873.583-.163c1.356-.407,1.8-1.085,2.888-4.379l.732-2.2h.447a2.141,2.141,0,0,0,1.8-1.179c.244-.515.271-.773.23-2.264-.041-1.451-.081-1.735-.325-2.061-.61-.827-.895-.935-2.576-.976L65-476.1l-.027-14.275-.041-14.262-2.264-3.4c-1.925-2.9-2.359-3.443-2.806-3.687C59.321-512,59.172-512,34.742-512,10.475-511.986,10.163-511.986,9.648-511.715Zm3.837,16.458v14.709H6.571v-4.745h.393a2.436,2.436,0,0,0,1.559-.99c.285-.38.285-.5.285-6.724v-6.345l-.38-.488a2.051,2.051,0,0,0-1.518-.908H6.571v-3.186l2.006-3.01,1.993-3.023h2.915ZM54.02-508.746v1.22h-38.5v-2.44h38.5Zm6.955,1.8,1.993,3.01v23.386H56.053v-29.418h2.915Zm-6.982,7.172-.041,5.735h-2.44l-.068-1.152a2.932,2.932,0,0,0-.976-2.386c-.908-.868-1.152-.922-3.986-.976-3.023-.068-3.864.054-4.691.691a3.509,3.509,0,0,0-1.3,2.82l-.068,1.071L28-494l-12.418-.041-.041-5.735-.027-5.721h38.5ZM6.842-493.02v5.694H4.4v-11.388h2.44Zm42.216-3.132c.312.3.352.434.352,1.261v.922L45.994-494l-3.43-.041-.041-.664c-.054-.854.163-1.356.691-1.627.366-.19.868-.217,2.969-.19C48.651-496.477,48.719-496.464,49.058-496.152Zm-8.6,5.436v1.22l-12.432-.027-12.445-.041-.041-1.193-.041-1.179H40.463Zm8.948,1.451v2.671l-.773.786-.773.786H44.2l-.854-.841L42.5-486.7v-5.233h6.914Zm4.582-1.491-.041,1.193h-2.44l-.041-1.193-.041-1.179h2.6Zm-13.53,3.687c0,.935.176,1.288,1.207,2.359,1.329,1.4,1.627,1.586,2.522,1.681l.746.081v1.274c0,1.247.014,1.288.407,1.695.339.325.488.393.786.312.746-.19.841-.393.841-1.925v-1.4h.542a3.246,3.246,0,0,0,2.359-1.193c1.3-1.261,1.573-1.708,1.573-2.562v-.719H54.02v11.388h-38.5v-11.388H40.463Zm-26.978,9.775v1.22H6.571v-2.44h6.914Zm49.483,0v1.22H56.053v-2.44h6.914Zm4.474,4.474v1.22H2.1v-2.44H67.441Zm-2.711,3.362c0,.176-1.207,3.728-1.369,4.04a1.121,1.121,0,0,1-.488.447c-.461.217-55.746.217-56.207,0a1.121,1.121,0,0,1-.488-.447c-.163-.312-1.369-3.864-1.369-4.04,0-.054,13.489-.108,29.961-.108S64.73-469.513,64.73-469.458Zm-48.94,11.279v4.609H8.875v-9.219h6.914Zm31.452.61c0,5.491-.041,5.857-.61,6.087-.3.108-23.426.108-23.725,0-.569-.231-.61-.6-.61-6.087v-5.219H47.241Zm13.421-.61v4.609H53.749v-9.219h6.914Zm-44.873,7.863v1.22H8.875v-2.44h6.914Zm44.873,0v1.22H53.749v-2.44h6.914Zm-42.6,4.433-.041,1.193-5.721.041-5.735.027v-2.44H18.108Zm44.9.041v1.22l-5.721-.027-5.735-.041-.041-1.193-.041-1.179H62.967Z" transform="translate(15.305 416.478)" fill="url(#linear-gradient)"/>
    <path id="Path_3" data-name="Path 3" d="M185.2-130.771a3.461,3.461,0,0,0-2.6,3.457,3.527,3.527,0,0,0,5.073,3.233,3,3,0,0,0,1.706-1.736,3.775,3.775,0,0,0-.943-4.265A3.849,3.849,0,0,0,185.2-130.771Zm1.781,2.5a1.307,1.307,0,0,1-1.676,2.005,1.27,1.27,0,0,1-.329-1.646A1.225,1.225,0,0,1,186.985-128.272Z" transform="translate(-142.738 86.479)" fill="url(#linear-gradient)"/>
    <path id="Path_4" data-name="Path 4" d="M251.329-130.534a3.872,3.872,0,0,0-1.99,1.751,4.478,4.478,0,0,0-.15,3.023,3.61,3.61,0,0,0,5.642,1.332,3.55,3.55,0,0,0-2.05-6.256A3.615,3.615,0,0,0,251.329-130.534Zm1.841,2.26a1.248,1.248,0,0,1,.554,1.646,1.283,1.283,0,0,1-2.484-.494A1.241,1.241,0,0,1,253.169-128.274Z" transform="translate(-200.227 86.318)" fill="url(#linear-gradient)"/>
  </g>
</svg>
