<svg xmlns="http://www.w3.org/2000/svg" xmlns:xlink="http://www.w3.org/1999/xlink" width="57" height="70.699" viewBox="0 0 57 70.699">
  <defs>
    <linearGradient id="linear-gradient" x1="0.5" x2="0.5" y2="1" gradientUnits="objectBoundingBox">
      <stop offset="0" stop-color="#253a56"/>
      <stop offset="1" stop-color="#0665e3"/>
    </linearGradient>
  </defs>
  <g id="chamada-de-servico" transform="translate(-120.5 479.7)">
    <path id="Path_38" data-name="Path 38" d="M124.212-479.607a6.587,6.587,0,0,0-2.485,1.46,9.363,9.363,0,0,0-.808,1.258l-.419.792v63.523l.419.792a4.521,4.521,0,0,0,2.174,2.252l.978.528h34.946l.978-.528a4.521,4.521,0,0,0,2.174-2.252l.419-.792.047-19.927.031-19.911h1.243v2.718c0,2.687,0,2.734.388,3.106a1.217,1.217,0,0,0,.87.388c.45,0,.87-.357,3.619-3.091l3.122-3.091,1.786-.062c2.066-.062,2.656-.311,3.386-1.413l.419-.637v-13.233l-.419-.637a4.086,4.086,0,0,0-1.01-.994l-.59-.373-6.4-.047-6.383-.047-.062-3.137-.047-3.137-.528-.978a4.521,4.521,0,0,0-2.252-2.174l-.792-.419-17.162-.031C132.413-479.7,124.476-479.669,124.212-479.607Zm34.48,2.563a2.864,2.864,0,0,1,1.429,1.771l.109.5H141.561c-16.106,0-18.653-.031-18.653-.217a2.638,2.638,0,0,1,1.475-2.05C125.1-477.355,157.946-477.355,158.692-477.044Zm1.491,5.98v1.242l-5.172.047-5.187.047-.621.419a4.086,4.086,0,0,0-.994,1.01l-.373.59v13.2l.373.59a4.085,4.085,0,0,0,.994,1.01l.621.419,5.187.047,5.172.047v31.047H147.758v-9.35l1.382-1.444a19.379,19.379,0,0,0,1.941-2.376,11.058,11.058,0,0,0-.73-12.565,22.032,22.032,0,0,0-2.64-2.469c-2.143-1.724-2.532-1.895-3.231-1.32-.373.3-.373.311-.45,4.644-.093,4.8-.078,4.737-1.149,5.529a2.81,2.81,0,0,1-2.671,0c-1.072-.792-1.056-.73-1.149-5.529-.078-4.333-.078-4.349-.45-4.644-.7-.559-1.087-.4-3.215,1.32a12.216,12.216,0,0,0-3.867,4.4,9.4,9.4,0,0,0-1.072,5.017,7.589,7.589,0,0,0,.435,3.184,12.238,12.238,0,0,0,3.06,4.8l1.382,1.46v9.35H122.907v-50.943h37.275Zm14.724,3.929a91.794,91.794,0,0,1,0,12.052,5.643,5.643,0,0,1-2.128.186h-1.926l-2.237,2.205-2.221,2.205V-452.3c0-1.74-.016-1.848-.388-2.205l-.373-.388h-7.517c-5.622,0-7.548-.047-7.688-.186a91.789,91.789,0,0,1,0-12.052C150.693-467.4,174.642-467.4,174.906-467.135Zm-37.865,26.45a5.664,5.664,0,0,0,2.407,2.423,5.6,5.6,0,0,0,4.193,0,5.664,5.664,0,0,0,2.407-2.423c.342-.714.388-1.01.466-3.712l.078-2.935.808.73a9.211,9.211,0,0,1,2.33,3.464,5.757,5.757,0,0,1,.4,2.842c0,2.889-.575,4.1-3.184,6.772l-1.677,1.74v10.437h-3.728v-9.179l.388-.373a1.211,1.211,0,0,1,.854-.388,1.312,1.312,0,0,0,1.242-1.242,1.3,1.3,0,0,0-1.258-1.243,4.119,4.119,0,0,0-3.526,2.578,35.338,35.338,0,0,0-.186,5.25v4.6h-1.243v-10.437l-1.677-1.74c-2.609-2.671-3.184-3.883-3.184-6.772a5.757,5.757,0,0,1,.4-2.842,9.211,9.211,0,0,1,2.33-3.464l.808-.73.078,2.935C136.653-441.679,136.684-441.4,137.041-440.685Zm-1.072,22.94a4.109,4.109,0,0,0-.559,2.609,4.109,4.109,0,0,0,.559,2.609l.559,1.134-6.011-.047-6.011-.047-.575-.45c-.932-.7-1.025-1.1-1.025-4.209v-2.718h13.605Zm6.725-.932a4.115,4.115,0,0,1,2.578,3.541,3.912,3.912,0,0,1-3.728,3.728,3.912,3.912,0,0,1-3.728-3.728,3.4,3.4,0,0,1,1.165-2.563A3.429,3.429,0,0,1,142.694-418.677Zm17.457,2.749c-.047,3.215-.093,3.355-1.118,4.116-.4.311-.637.326-6.446.373l-6.026.047.559-1.134a4.109,4.109,0,0,0,.559-2.609,4.109,4.109,0,0,0-.559-2.609l-.544-1.118H160.2Z" fill="url(#linear-gradient)"/>
    <path id="Path_39" data-name="Path 39" d="M152.388-191.612c-.373.357-.388.435-.388,2.718s.016,2.361.388,2.718a1.211,1.211,0,0,0,.854.388,1.211,1.211,0,0,0,.854-.388c.373-.357.388-.435.388-2.718s-.016-2.361-.388-2.718a1.211,1.211,0,0,0-.854-.388A1.211,1.211,0,0,0,152.388-191.612Z" transform="translate(-26.608 -243.016)" fill="url(#linear-gradient)"/>
    <path id="Path_40" data-name="Path 40" d="M152.388-143.612c-.342.326-.388.513-.388,1.475s.047,1.149.388,1.475a1.211,1.211,0,0,0,.854.388,1.211,1.211,0,0,0,.854-.388c.342-.326.388-.513.388-1.475s-.047-1.149-.388-1.475a1.211,1.211,0,0,0-.854-.388A1.211,1.211,0,0,0,152.388-143.612Z" transform="translate(-26.608 -283.561)" fill="url(#linear-gradient)"/>
    <path id="Path_41" data-name="Path 41" d="M345.587-371.676a1.8,1.8,0,0,0-1.087,1.74,1.359,1.359,0,0,0,.513,1.258,1.372,1.372,0,0,0,1.274.513,1.372,1.372,0,0,0,1.274-.513,1.372,1.372,0,0,0,.513-1.274,1.4,1.4,0,0,0-.481-1.258A2.006,2.006,0,0,0,345.587-371.676Z" transform="translate(-189.21 -91.157)" fill="url(#linear-gradient)"/>
    <path id="Path_42" data-name="Path 42" d="M385.587-371.676a1.8,1.8,0,0,0-1.087,1.74,1.359,1.359,0,0,0,.513,1.258,1.372,1.372,0,0,0,1.274.513,1.372,1.372,0,0,0,1.274-.513,1.372,1.372,0,0,0,.513-1.274,1.4,1.4,0,0,0-.481-1.258A2.006,2.006,0,0,0,385.587-371.676Z" transform="translate(-222.997 -91.157)" fill="url(#linear-gradient)"/>
    <path id="Path_43" data-name="Path 43" d="M425.587-371.676a1.8,1.8,0,0,0-1.087,1.74,1.359,1.359,0,0,0,.513,1.258,1.372,1.372,0,0,0,1.274.513,1.372,1.372,0,0,0,1.274-.513,1.372,1.372,0,0,0,.513-1.274,1.4,1.4,0,0,0-.481-1.258A2.006,2.006,0,0,0,425.587-371.676Z" transform="translate(-256.785 -91.157)" fill="url(#linear-gradient)"/>
  </g>
</svg>
