<svg xmlns="http://www.w3.org/2000/svg" xmlns:xlink="http://www.w3.org/1999/xlink" width="65.773" height="70.594" viewBox="0 0 65.773 70.594">
  <defs>
    <linearGradient id="linear-gradient" x1="0.5" x2="0.5" y2="1" gradientUnits="objectBoundingBox">
      <stop offset="0" stop-color="#253a56"/>
      <stop offset="1" stop-color="#0665e3"/>
    </linearGradient>
  </defs>
  <g id="servico" transform="translate(-40 487.663)">
    <path id="Path_47" data-name="Path 47" d="M131.967-487.562A7.191,7.191,0,0,0,129-485.8a8.3,8.3,0,0,0-1.1,1.614,4.907,4.907,0,0,1-.731,1.142,6.2,6.2,0,0,1-2.086.2c-2.238,0-3.045.228-3.943,1.142-1,.99-1.142,1.614-1.142,4.948s.137,3.959,1.142,4.948c1.172,1.172.807,1.142,12.256,1.142,11.465,0,11.053.046,12.241-1.157,1.02-1.02,1.157-1.583,1.157-4.933,0-3.334-.137-3.959-1.142-4.948-.9-.9-1.705-1.142-3.9-1.142a14.531,14.531,0,0,1-2.025-.091,4.336,4.336,0,0,1-.868-1.294,5.905,5.905,0,0,0-5.131-3.426A8.421,8.421,0,0,0,131.967-487.562Zm2.527,2.466a4.44,4.44,0,0,1,2.375,2.3,4.047,4.047,0,0,0,2.3,2.208,12.008,12.008,0,0,0,2.436.183c1.857,0,1.873,0,2.314.442l.442.442v5.542l-.442.442-.442.442H123.319l-.442-.442-.442-.442v-5.542l.442-.442c.442-.442.457-.442,2.314-.442a12.007,12.007,0,0,0,2.436-.183,4.188,4.188,0,0,0,2.345-2.253C130.977-484.836,132.622-485.659,134.494-485.1Z" transform="translate(-67.82)" fill="url(#linear-gradient)"/>
    <path id="Path_48" data-name="Path 48" d="M200.505-455.619a1.2,1.2,0,0,0,.837,2.055,1.286,1.286,0,0,0,1.218-1.218A1.286,1.286,0,0,0,201.342-456,1.187,1.187,0,0,0,200.505-455.619Z" transform="translate(-135.764 -26.842)" fill="url(#linear-gradient)"/>
    <path id="Path_49" data-name="Path 49" d="M40.381-439.619l-.381.365v61.845l.381.365.365.381H90.411l.365-.381.381-.365V-388.1l-.381-.365a1.119,1.119,0,0,0-1.675,0l-.381.365v9H42.436v-58.465h7.78l.365-.381a1.119,1.119,0,0,0,0-1.675L50.216-440h-9.47Z" transform="translate(0 -40.406)" fill="url(#linear-gradient)"/>
    <path id="Path_50" data-name="Path 50" d="M304.381-439.619a1.187,1.187,0,0,0-.381.837,1.187,1.187,0,0,0,.381.837l.365.381h7.78v11.434l.381.365a1.187,1.187,0,0,0,.837.381,1.187,1.187,0,0,0,.837-.381l.381-.365v-13.124l-.381-.365-.365-.381h-9.47Z" transform="translate(-223.805 -40.406)" fill="url(#linear-gradient)"/>
    <path id="Path_51" data-name="Path 51" d="M72.381-399.619l-.381.365v49.665l.381.365.365.381h39.92l.365-.381c.365-.35.381-.426.381-2.664s-.015-2.314-.381-2.664a1.119,1.119,0,0,0-1.675,0c-.35.335-.381.487-.381,1.827v1.446H74.436v-46.285h1.446c1.34,0,1.492-.03,1.827-.381a1.187,1.187,0,0,0,.381-.837,1.187,1.187,0,0,0-.381-.837c-.35-.365-.426-.381-2.664-.381S72.731-399.985,72.381-399.619Z" transform="translate(-27.128 -74.316)" fill="url(#linear-gradient)"/>
    <path id="Path_52" data-name="Path 52" d="M304.381-399.619a1.187,1.187,0,0,0-.381.837,1.187,1.187,0,0,0,.381.837c.335.35.487.381,1.827.381h1.446v2.664c0,2.634,0,2.68.381,3.045a1.119,1.119,0,0,0,1.675,0l.381-.365v-7.034l-.381-.365c-.35-.365-.426-.381-2.664-.381S304.731-399.985,304.381-399.619Z" transform="translate(-223.805 -74.316)" fill="url(#linear-gradient)"/>
    <path id="Path_53" data-name="Path 53" d="M104.361-351.639c-.381.365-.381.4-.381,3.273,0,3.913-.259,3.654,3.654,3.654,2.878,0,2.908,0,3.273-.381.381-.365.381-.4.381-3.273,0-3.913.259-3.654-3.654-3.654C104.757-352.02,104.726-352.02,104.361-351.639Zm4.491,3.273v1.218h-2.436v-2.436h2.436Z" transform="translate(-54.236 -114.988)" fill="url(#linear-gradient)"/>
    <path id="Path_54" data-name="Path 54" d="M160.381-343.619a1.187,1.187,0,0,0-.381.837,1.187,1.187,0,0,0,.381.837l.365.381H173.87l.365-.381a1.187,1.187,0,0,0,.381-.837,1.187,1.187,0,0,0-.381-.837L173.87-344H160.746Z" transform="translate(-101.73 -121.79)" fill="url(#linear-gradient)"/>
    <path id="Path_55" data-name="Path 55" d="M264.381-343.619a1.187,1.187,0,0,0-.381.837,1.187,1.187,0,0,0,.381.837c.35.365.472.381,2.055.381s1.705-.015,2.055-.381a1.187,1.187,0,0,0,.381-.837,1.187,1.187,0,0,0-.381-.837c-.35-.365-.472-.381-2.055-.381S264.731-343.985,264.381-343.619Z" transform="translate(-189.896 -121.79)" fill="url(#linear-gradient)"/>
    <path id="Path_56" data-name="Path 56" d="M261.779-335.619c-.365.35-.381.457-.381,2.086v1.72l-.639.2c-.35.122-1,.381-1.462.594l-.807.381-1.294-1.248c-1.705-1.66-1.644-1.675-4.2.883-2.558,2.543-2.543,2.5-.9,4.187l1.233,1.264-.533,1.264a9.26,9.26,0,0,0-.533,1.477c0,.167-.335.213-1.751.213-1.675,0-1.781.015-2.132.381-.381.365-.381.4-.381,3.273s0,2.908.381,3.273c.35.365.457.381,2.132.381,1.416,0,1.751.046,1.751.213a9.261,9.261,0,0,0,.533,1.477l.533,1.264-1.233,1.264c-1.644,1.69-1.66,1.644.9,4.187,2.558,2.558,2.5,2.543,4.2.883l1.294-1.248.807.381c.457.213,1.111.472,1.462.594l.639.2v1.72c0,1.629.015,1.736.381,2.086.365.381.4.381,3.273.381s2.908,0,3.273-.381c.365-.35.381-.457.381-2.132,0-1.568.03-1.751.274-1.751a7.881,7.881,0,0,0,1.462-.533l1.218-.533,1.264,1.233c1.69,1.644,1.644,1.66,4.187-.9,2.558-2.543,2.543-2.5.9-4.187l-1.233-1.264.533-1.264a9.26,9.26,0,0,0,.533-1.477c0-.167.335-.213,1.751-.213,1.675,0,1.781-.015,2.132-.381.381-.365.381-.4.381-3.273s0-2.908-.381-3.273c-.35-.365-.457-.381-2.132-.381-1.416,0-1.751-.046-1.751-.213a9.259,9.259,0,0,0-.533-1.477l-.533-1.264,1.233-1.264c1.644-1.69,1.66-1.644-.9-4.187-2.543-2.558-2.5-2.543-4.187-.9l-1.264,1.233-1.218-.533a7.879,7.879,0,0,0-1.462-.533c-.244,0-.274-.183-.274-1.751,0-1.675-.015-1.781-.381-2.132-.365-.381-.4-.381-3.273-.381S262.144-336,261.779-335.619ZM266.27-332c0,1.9.091,2.025,1.827,2.527a14.9,14.9,0,0,1,2.238.944,5.307,5.307,0,0,0,1.507.594c.289,0,.7-.289,1.523-1.1l1.142-1.1.868.868.868.868-1.111,1.111c-.792.792-1.1,1.218-1.1,1.492a6.823,6.823,0,0,0,.67,1.736,10.175,10.175,0,0,1,.868,2.177,2.784,2.784,0,0,0,.609,1.279c.4.411.487.426,1.949.426h1.538v2.436h-1.507c-1.888,0-2.116.152-2.6,1.827a13.387,13.387,0,0,1-.929,2.238,5.308,5.308,0,0,0-.594,1.507c0,.289.289.7,1.1,1.523l1.1,1.142-.868.868-.868.868-1.111-1.111c-.761-.761-1.218-1.1-1.477-1.1a7.138,7.138,0,0,0-1.751.685,13.355,13.355,0,0,1-2.284.914c-1.4.35-1.6.655-1.6,2.527v1.507h-2.436V-305.9c0-1.9-.091-2.025-1.827-2.527a14.9,14.9,0,0,1-2.238-.944,5.307,5.307,0,0,0-1.507-.594c-.289,0-.7.289-1.523,1.1l-1.142,1.1-.868-.868-.868-.868,1.111-1.111c.792-.792,1.1-1.218,1.1-1.492a6.824,6.824,0,0,0-.67-1.736,10.176,10.176,0,0,1-.868-2.177,2.931,2.931,0,0,0-.609-1.294c-.4-.4-.487-.411-1.949-.411h-1.538v-2.436H252c1.9,0,2.025-.091,2.527-1.827a14.9,14.9,0,0,1,.944-2.238,5.307,5.307,0,0,0,.594-1.507c0-.289-.289-.7-1.1-1.523l-1.1-1.142.868-.868.868-.868,1.111,1.111c.792.792,1.218,1.1,1.492,1.1a6.823,6.823,0,0,0,1.736-.67,10.174,10.174,0,0,1,2.177-.868,2.931,2.931,0,0,0,1.294-.609c.4-.4.411-.487.411-1.949v-1.538h2.436Z" transform="translate(-176.332 -128.572)" fill="url(#linear-gradient)"/>
    <path id="Path_57" data-name="Path 57" d="M324.629-263.646c-.183.2-1.979,2.451-3.974,5.024-1.995,2.588-3.685,4.689-3.73,4.689a19.04,19.04,0,0,1-1.507-1.888,15.138,15.138,0,0,0-1.644-1.979,1.239,1.239,0,0,0-1.355.289c-.7.685-.563,1,1.69,4,2.116,2.817,2.375,3.06,3.152,2.862.244-.061,1.812-1.949,4.872-5.892,4.872-6.258,4.9-6.318,4.141-7.064A1.133,1.133,0,0,0,324.629-263.646Z" transform="translate(-230.625 -189.629)" fill="url(#linear-gradient)"/>
    <path id="Path_58" data-name="Path 58" d="M160.381-319.619a1.187,1.187,0,0,0-.381.837,1.187,1.187,0,0,0,.381.837l.365.381h10.688l.365-.381a1.187,1.187,0,0,0,.381-.837,1.187,1.187,0,0,0-.381-.837l-.365-.381H160.746Z" transform="translate(-101.73 -142.136)" fill="url(#linear-gradient)"/>
    <path id="Path_59" data-name="Path 59" d="M104.361-287.639c-.381.365-.381.4-.381,3.273,0,3.913-.259,3.654,3.654,3.654,2.878,0,2.908,0,3.273-.381.381-.365.381-.4.381-3.273,0-3.913.259-3.654-3.654-3.654C104.757-288.02,104.726-288.02,104.361-287.639Zm4.491,3.273v1.218h-2.436v-2.436h2.436Z" transform="translate(-54.236 -169.244)" fill="url(#linear-gradient)"/>
    <path id="Path_60" data-name="Path 60" d="M160.381-279.619a1.187,1.187,0,0,0-.381.837,1.187,1.187,0,0,0,.381.837c.35.365.472.381,2.055.381s1.705-.015,2.055-.381a1.187,1.187,0,0,0,.381-.837,1.187,1.187,0,0,0-.381-.837c-.35-.365-.472-.381-2.055-.381S160.731-279.985,160.381-279.619Z" transform="translate(-101.73 -176.046)" fill="url(#linear-gradient)"/>
    <path id="Path_61" data-name="Path 61" d="M200.381-279.619a1.187,1.187,0,0,0-.381.837,1.187,1.187,0,0,0,.381.837c.365.381.4.381,3.273.381s2.908,0,3.273-.381a1.187,1.187,0,0,0,.381-.837,1.187,1.187,0,0,0-.381-.837c-.365-.381-.4-.381-3.273-.381S200.746-280,200.381-279.619Z" transform="translate(-135.64 -176.046)" fill="url(#linear-gradient)"/>
    <path id="Path_62" data-name="Path 62" d="M160.381-255.619a1.187,1.187,0,0,0-.381.837,1.187,1.187,0,0,0,.381.837l.365.381H169l.365-.381a1.187,1.187,0,0,0,.381-.837,1.187,1.187,0,0,0-.381-.837L169-256h-8.252Z" transform="translate(-101.73 -196.392)" fill="url(#linear-gradient)"/>
    <path id="Path_63" data-name="Path 63" d="M104.361-223.639c-.381.365-.381.4-.381,3.273,0,3.913-.259,3.654,3.654,3.654,2.878,0,2.908,0,3.273-.381.381-.365.381-.4.381-3.273,0-3.913.259-3.654-3.654-3.654C104.757-224.02,104.726-224.02,104.361-223.639Zm4.491,3.273v1.218h-2.436v-2.436h2.436Z" transform="translate(-54.236 -223.5)" fill="url(#linear-gradient)"/>
    <path id="Path_64" data-name="Path 64" d="M160.381-215.619a1.187,1.187,0,0,0-.381.837,1.187,1.187,0,0,0,.381.837l.365.381h9.47l.365-.381a1.187,1.187,0,0,0,.381-.837,1.187,1.187,0,0,0-.381-.837l-.365-.381h-9.47Z" transform="translate(-101.73 -230.301)" fill="url(#linear-gradient)"/>
    <path id="Path_65" data-name="Path 65" d="M160.381-191.619a1.187,1.187,0,0,0-.381.837,1.187,1.187,0,0,0,.381.837c.365.381.4.381,3.273.381s2.908,0,3.273-.381a1.187,1.187,0,0,0,.381-.837,1.187,1.187,0,0,0-.381-.837c-.365-.381-.4-.381-3.273-.381S160.746-192,160.381-191.619Z" transform="translate(-101.73 -250.647)" fill="url(#linear-gradient)"/>
    <path id="Path_66" data-name="Path 66" d="M216.381-191.619a1.187,1.187,0,0,0-.381.837,1.187,1.187,0,0,0,.381.837c.32.335.5.381,1.446.381s1.127-.046,1.446-.381a1.187,1.187,0,0,0,.381-.837,1.187,1.187,0,0,0-.381-.837c-.32-.335-.5-.381-1.446-.381S216.7-191.954,216.381-191.619Z" transform="translate(-149.204 -250.647)" fill="url(#linear-gradient)"/>
    <path id="Path_67" data-name="Path 67" d="M104.361-159.639c-.381.365-.381.4-.381,3.273,0,3.913-.259,3.654,3.654,3.654s3.654.259,3.654-3.654.259-3.654-3.654-3.654C104.757-160.02,104.726-160.02,104.361-159.639Zm4.491,3.273v1.218h-2.436v-2.436h2.436Z" transform="translate(-54.236 -277.756)" fill="url(#linear-gradient)"/>
    <path id="Path_68" data-name="Path 68" d="M160.381-151.619a1.187,1.187,0,0,0-.381.837,1.187,1.187,0,0,0,.381.837l.365.381h11.906l.365-.381a1.187,1.187,0,0,0,.381-.837,1.187,1.187,0,0,0-.381-.837l-.365-.381H160.746Z" transform="translate(-101.73 -284.557)" fill="url(#linear-gradient)"/>
    <path id="Path_69" data-name="Path 69" d="M160.381-127.619a1.187,1.187,0,0,0-.381.837,1.187,1.187,0,0,0,.381.837l.365.381h7.034l.365-.381a1.187,1.187,0,0,0,.381-.837,1.187,1.187,0,0,0-.381-.837L167.78-128h-7.034Z" transform="translate(-101.73 -304.903)" fill="url(#linear-gradient)"/>
    <path id="Path_70" data-name="Path 70" d="M224.381-127.619a1.187,1.187,0,0,0-.381.837,1.187,1.187,0,0,0,.381.837c.365.381.4.381,3.273.381s2.908,0,3.273-.381a1.187,1.187,0,0,0,.381-.837,1.187,1.187,0,0,0-.381-.837c-.365-.381-.4-.381-3.273-.381S224.746-128,224.381-127.619Z" transform="translate(-155.986 -304.903)" fill="url(#linear-gradient)"/>
  </g>
</svg>
