<svg xmlns="http://www.w3.org/2000/svg" width="908.891" height="877" viewBox="0 0 908.891 877">
  <g id="Sem-TiÌtulo-1" transform="translate(-29 758)">
    <path id="Path_80" data-name="Path 80" d="M398.245-714.825l.368,43.3,6.746.859c3.68.491,16.927,1.717,29.438,2.7,57.158,4.784,114.807,22.324,161.662,49.431,38.269,22.2,73.594,55.686,97.758,92.852,6.378,9.69,21.1,37.656,24.777,46.855,17.295,43.421,26.249,87.087,28.089,136.64.491,11.162,1.349,20.974,2.085,21.71.859,1.227,13,1.595,53.111,1.595h52.007V-758H398Z" transform="translate(83.606)" fill="#f7f7f7"/>
    <path id="Path_81" data-name="Path 81" d="M413.041-633.184c-15.823,2.208-41.7,8.1-50.9,11.652-18.153,6.869-26.249,10.058-27.966,11.039-1.1.491-5.152,2.576-8.831,4.293a292.3,292.3,0,0,0-73.962,52.5c-36.675,36.184-64.4,84.02-76.783,133.083-6.869,26.617-7.973,37.043-8.1,71.387,0,34.712.981,44.525,7.482,69.915,7.973,31.155,17.908,54.583,36.429,85.247,11.652,19.257,41.458,52.5,61.574,68.688,21.833,17.54,49.308,33.731,71.632,42.562,5.152,1.963,10.426,4.048,11.775,4.661,4.661,1.963,23.428,7.237,34.344,9.69a287.047,287.047,0,0,0,126.337-.613C589.177-86.01,651-129.553,692.7-193.457c21.588-33.24,36.184-72.858,43.053-117.138,2.944-18.521,2.944-57.649,0-76.048-13.37-86.105-56.545-155.039-125.846-201.158-14.6-9.69-39.005-22.814-49.676-26.739-30.664-11.285-49.186-16.068-74.208-19.257C472.162-635.515,426.779-635.146,413.041-633.184Z" transform="translate(31.154 27.892)" fill="#f7f7f7"/>
    <path id="Path_82" data-name="Path 82" d="M31.208-400.159C29.123-399.668,29-388.139,29-180.725V38.1H485.285L485.04-5.2l-.368-43.175-6.746-.859c-3.68-.491-16.927-1.717-29.438-2.7-57.158-4.784-114.807-22.324-161.662-49.431-38.269-22.2-73.594-55.686-97.758-92.852-6.378-9.69-21.1-37.656-24.777-46.855-17.172-43.3-26.126-86.841-28.211-136.395-.491-14.841-1.227-20.606-2.453-21.833-1.472-1.472-10.181-1.717-51.025-1.595C55.494-400.772,32.312-400.527,31.208-400.159Z" transform="translate(0 80.904)" fill="#f7f7f7"/>
  </g>
</svg>
